# xmcd
#
# Track frame offsets: 
#        150
#        32692
#        66287
#        81227
#        91797
#        103579
#        114917
#        126218
#        138308
#        152028
#        168012
#        186625
#        198470
#        209609
#        221900
#        233429
#        242217
#        254948
#        276329
#        293760
#
# Disc length: 4167 seconds
#
# Revision: 0
# Processed by: cddbd v1.5.2PL0 Copyright (c) Steve Scherf et al.
# Submitted via: ExactAudioCopy v0.99pb4
#
DISCID=30104514
DTITLE=Syl Johnson - Is It Because I'm Black?
DYEAR=2006
DGENRE=Soul
TTITLE0=Right on Sister
TTITLE1=Is it because I'm black
TTITLE2=Cone Together
TTITLE3=Concrete Reservation
TTITLE4=Walk a mile in my shoes
TTITLE5=One way Ticket
TTITLE6=Kiss by Kiss
TTITLE7=Black Balloons
TTITLE8=Get Ready
TTITLE9=Talk 'bout Freedom
TTITLE10=New day
TTITLE11=Thank U baby
TTITLE12=Your love is good for Me
TTITLE13=We do it together
TTITLE14=That is why
TTITLE15=wiggles
TTITLE16=Together forever
TTITLE17=Is it because I'm Black 2006
TTITLE18=Ms. Fine Brown Frame (bonus)
TTITLE19=Tell the Truth (bonus)
EXTD=
EXTT0=
EXTT1=
EXTT2=
EXTT3=
EXTT4=
EXTT5=
EXTT6=
EXTT7=
EXTT8=
EXTT9=
EXTT10=
EXTT11=
EXTT12=
EXTT13=
EXTT14=
EXTT15=
EXTT16=
EXTT17=
EXTT18=
EXTT19=
PLAYORDER=
